<mxfile host="app.diagrams.net" modified="2021-02-14T05:23:23.623Z" agent="5.0 (Macintosh; Intel Mac OS X 10_14_6) AppleWebKit/537.36 (KHTML, like Gecko) Chrome/88.0.4324.96 Safari/537.36" etag="V3_kIEaddQ25jtjigk2N" version="14.3.1" type="github">
  <diagram name="Page-1" id="e7e014a7-5840-1c2e-5031-d8a46d1fe8dd">
    <mxGraphModel dx="3235" dy="994" grid="1" gridSize="10" guides="1" tooltips="1" connect="1" arrows="1" fold="1" page="1" pageScale="1" pageWidth="1169" pageHeight="826" background="#ffffff" math="0" shadow="0">
      <root>
        <mxCell id="0" />
        <mxCell id="1" parent="0" />
        <UserObject label="DNS" link="https://juejin.cn/post/6844903922084085773" id="Dd6mJaHPMbSLODWBhxCd-61">
          <mxCell style="shape=mxgraph.flowchart.process;" parent="1" vertex="1">
            <mxGeometry x="396" y="100" width="100" height="61" as="geometry" />
          </mxCell>
        </UserObject>
        <mxCell id="Dd6mJaHPMbSLODWBhxCd-62" value="客户端" style="shape=mxgraph.flowchart.process;" parent="1" vertex="1">
          <mxGeometry x="115" y="100" width="100" height="60" as="geometry" />
        </mxCell>
        <mxCell id="Dd6mJaHPMbSLODWBhxCd-63" value="return IP address" style="html=1;verticalAlign=bottom;endArrow=open;dashed=1;endSize=8;entryX=1.02;entryY=0.667;entryDx=0;entryDy=0;entryPerimeter=0;exitX=0;exitY=0.656;exitDx=0;exitDy=0;exitPerimeter=0;" parent="1" source="Dd6mJaHPMbSLODWBhxCd-61" target="Dd6mJaHPMbSLODWBhxCd-62" edge="1">
          <mxGeometry x="0.0079" y="24" relative="1" as="geometry">
            <mxPoint x="291" y="152" as="sourcePoint" />
            <mxPoint x="211" y="152" as="targetPoint" />
            <mxPoint as="offset" />
          </mxGeometry>
        </mxCell>
        <mxCell id="Dd6mJaHPMbSLODWBhxCd-64" value="请求解析" style="html=1;verticalAlign=bottom;endArrow=open;dashed=1;endFill=0;exitX=1.02;exitY=0.317;exitDx=0;exitDy=0;exitPerimeter=0;entryX=0;entryY=0.344;entryDx=0;entryDy=0;entryPerimeter=0;" parent="1" source="Dd6mJaHPMbSLODWBhxCd-62" target="Dd6mJaHPMbSLODWBhxCd-61" edge="1">
          <mxGeometry width="80" relative="1" as="geometry">
            <mxPoint x="211" y="130.3094696969697" as="sourcePoint" />
            <mxPoint x="293" y="118.51700000000005" as="targetPoint" />
          </mxGeometry>
        </mxCell>
        <mxCell id="Dd6mJaHPMbSLODWBhxCd-65" value="我想浏览http 页面" style="shape=mxgraph.basic.rectangular_callout;" parent="1" vertex="1">
          <mxGeometry x="120" y="41" width="100" height="60" as="geometry" />
        </mxCell>
        <mxCell id="Dd6mJaHPMbSLODWBhxCd-66" value="" style="edgeStyle=orthogonalEdgeStyle;rounded=0;orthogonalLoop=1;jettySize=auto;html=1;" parent="1" source="Dd6mJaHPMbSLODWBhxCd-67" target="Dd6mJaHPMbSLODWBhxCd-70" edge="1">
          <mxGeometry relative="1" as="geometry" />
        </mxCell>
        <mxCell id="Dd6mJaHPMbSLODWBhxCd-67" value="HTTP" style="shape=mxgraph.flowchart.terminator;" parent="1" vertex="1">
          <mxGeometry x="228.5" y="212" width="100" height="60" as="geometry" />
        </mxCell>
        <mxCell id="Dd6mJaHPMbSLODWBhxCd-68" value="" style="edgeStyle=orthogonalEdgeStyle;rounded=0;orthogonalLoop=1;jettySize=auto;html=1;" parent="1" source="Dd6mJaHPMbSLODWBhxCd-70" target="Dd6mJaHPMbSLODWBhxCd-73" edge="1">
          <mxGeometry relative="1" as="geometry" />
        </mxCell>
        <mxCell id="Dd6mJaHPMbSLODWBhxCd-69" value="" style="edgeStyle=orthogonalEdgeStyle;rounded=0;orthogonalLoop=1;jettySize=auto;html=1;" parent="1" source="Dd6mJaHPMbSLODWBhxCd-70" target="Dd6mJaHPMbSLODWBhxCd-71" edge="1">
          <mxGeometry relative="1" as="geometry" />
        </mxCell>
        <mxCell id="Dd6mJaHPMbSLODWBhxCd-70" value="TCP" style="shape=mxgraph.flowchart.terminator;" parent="1" vertex="1">
          <mxGeometry x="228.5" y="310.5" width="100" height="60" as="geometry" />
        </mxCell>
        <mxCell id="7Sjr9TWf_SFaShSPsQ4E-9" value="" style="edgeStyle=orthogonalEdgeStyle;rounded=0;orthogonalLoop=1;jettySize=auto;html=1;" edge="1" parent="1" source="Dd6mJaHPMbSLODWBhxCd-71">
          <mxGeometry relative="1" as="geometry">
            <mxPoint x="588.5" y="340.5" as="targetPoint" />
          </mxGeometry>
        </mxCell>
        <mxCell id="Dd6mJaHPMbSLODWBhxCd-71" value="建立tcp 连接 3次握手" style="shape=mxgraph.flowchart.terminator;" parent="1" vertex="1">
          <mxGeometry x="408.5" y="310.5" width="100" height="60" as="geometry" />
        </mxCell>
        <mxCell id="Dd6mJaHPMbSLODWBhxCd-72" value="" style="edgeStyle=orthogonalEdgeStyle;rounded=0;orthogonalLoop=1;jettySize=auto;html=1;" parent="1" source="Dd6mJaHPMbSLODWBhxCd-73" target="Dd6mJaHPMbSLODWBhxCd-75" edge="1">
          <mxGeometry relative="1" as="geometry" />
        </mxCell>
        <mxCell id="Dd6mJaHPMbSLODWBhxCd-73" value="IP" style="shape=mxgraph.flowchart.terminator;" parent="1" vertex="1">
          <mxGeometry x="228.5" y="397" width="100" height="60" as="geometry" />
        </mxCell>
        <mxCell id="Dd6mJaHPMbSLODWBhxCd-74" value="" style="edgeStyle=orthogonalEdgeStyle;rounded=0;orthogonalLoop=1;jettySize=auto;html=1;" parent="1" source="Dd6mJaHPMbSLODWBhxCd-75" target="Dd6mJaHPMbSLODWBhxCd-76" edge="1">
          <mxGeometry relative="1" as="geometry" />
        </mxCell>
        <mxCell id="Dd6mJaHPMbSLODWBhxCd-75" value="TCP" style="shape=mxgraph.flowchart.terminator;" parent="1" vertex="1">
          <mxGeometry x="228.5" y="483.5" width="100" height="60" as="geometry" />
        </mxCell>
        <mxCell id="Dd6mJaHPMbSLODWBhxCd-76" value="HTTP" style="shape=mxgraph.flowchart.terminator;" parent="1" vertex="1">
          <mxGeometry x="228.5" y="579.5" width="100" height="60" as="geometry" />
        </mxCell>
        <mxCell id="Dd6mJaHPMbSLODWBhxCd-77" value="" style="edgeStyle=segmentEdgeStyle;endArrow=classic;html=1;entryX=0.508;entryY=0.019;entryDx=0;entryDy=0;entryPerimeter=0;" parent="1" source="Dd6mJaHPMbSLODWBhxCd-62" target="Dd6mJaHPMbSLODWBhxCd-67" edge="1">
          <mxGeometry width="50" height="50" relative="1" as="geometry">
            <mxPoint x="140" y="230.5" as="sourcePoint" />
            <mxPoint x="190" y="180.5" as="targetPoint" />
            <Array as="points">
              <mxPoint x="165" y="185" />
              <mxPoint x="279" y="185" />
            </Array>
          </mxGeometry>
        </mxCell>
        <UserObject label="https://github.com/biaochenxuying/blog/issues/3" link="https://github.com/biaochenxuying/blog/issues/3" id="Dd6mJaHPMbSLODWBhxCd-78">
          <mxCell style="text;html=1;align=center;verticalAlign=middle;resizable=0;points=[];autosize=1;" parent="1" vertex="1">
            <mxGeometry x="553" y="68" width="265" height="18" as="geometry" />
          </mxCell>
        </UserObject>
        <mxCell id="7Sjr9TWf_SFaShSPsQ4E-11" value="" style="edgeStyle=orthogonalEdgeStyle;rounded=0;orthogonalLoop=1;jettySize=auto;html=1;" edge="1" parent="1" source="Dd6mJaHPMbSLODWBhxCd-79">
          <mxGeometry relative="1" as="geometry">
            <mxPoint x="576" y="650" as="targetPoint" />
          </mxGeometry>
        </mxCell>
        <mxCell id="Dd6mJaHPMbSLODWBhxCd-79" value="关闭时4次握手" style="shape=mxgraph.flowchart.terminator;" parent="1" vertex="1">
          <mxGeometry x="396" y="620" width="100" height="60" as="geometry" />
        </mxCell>
        <mxCell id="7Sjr9TWf_SFaShSPsQ4E-1" value="Actor" style="shape=umlActor;verticalLabelPosition=bottom;verticalAlign=top;html=1;" vertex="1" parent="1">
          <mxGeometry x="85" y="41" width="30" height="60" as="geometry" />
        </mxCell>
        <mxCell id="7Sjr9TWf_SFaShSPsQ4E-3" value="" style="shape=image;imageAspect=0;aspect=fixed;verticalLabelPosition=bottom;verticalAlign=top;image=https://user-gold-cdn.xitu.io/2019/8/22/16cb90a456b980cb?imageView2/0/w/1280/h/960/format/webp/ignore-error/1;" vertex="1" parent="1">
          <mxGeometry x="-270" y="220" width="325.61" height="332" as="geometry" />
        </mxCell>
        <mxCell id="7Sjr9TWf_SFaShSPsQ4E-5" value="打包与拆包" style="html=1;shadow=0;dashed=0;align=center;verticalAlign=middle;shape=mxgraph.arrows2.twoWayArrow;dy=0.6;dx=35;" vertex="1" parent="1">
          <mxGeometry x="80" y="337" width="130" height="60" as="geometry" />
        </mxCell>
        <mxCell id="7Sjr9TWf_SFaShSPsQ4E-6" value="应用层" style="whiteSpace=wrap;html=1;" vertex="1" parent="1">
          <mxGeometry x="148.5" y="227" width="80" height="30" as="geometry" />
        </mxCell>
        <mxCell id="7Sjr9TWf_SFaShSPsQ4E-7" value="传输层" style="whiteSpace=wrap;html=1;" vertex="1" parent="1">
          <mxGeometry x="148.5" y="320" width="80" height="30" as="geometry" />
        </mxCell>
        <mxCell id="7Sjr9TWf_SFaShSPsQ4E-8" value="网络层" style="whiteSpace=wrap;html=1;" vertex="1" parent="1">
          <mxGeometry x="148.5" y="410" width="80" height="30" as="geometry" />
        </mxCell>
        <mxCell id="7Sjr9TWf_SFaShSPsQ4E-10" value="" style="shape=image;imageAspect=0;aspect=fixed;verticalLabelPosition=bottom;verticalAlign=top;image=https://cdn.jsdelivr.net/gh/xiaolincoder/ImageHost2/%E8%AE%A1%E7%AE%97%E6%9C%BA%E7%BD%91%E7%BB%9C/TCP-%E4%B8%89%E6%AC%A1%E6%8F%A1%E6%89%8B%E5%92%8C%E5%9B%9B%E6%AC%A1%E6%8C%A5%E6%89%8B/14.jpg;" vertex="1" parent="1">
          <mxGeometry x="600" y="205" width="324.7" height="271" as="geometry" />
        </mxCell>
      </root>
    </mxGraphModel>
  </diagram>
</mxfile>
